<?xml version="1.0" encoding="utf-8"?>
<!-- Generator: Adobe Illustrator 22.0.1, SVG Export Plug-In . SVG Version: 6.00 Build 0)  -->
<svg version="1.1" id="圖層_1" xmlns="http://www.w3.org/2000/svg" xmlns:xlink="http://www.w3.org/1999/xlink" x="0px" y="0px"
	 viewBox="0 0 200 200" style="enable-background:new 0 0 200 200;" xml:space="preserve">
<style type="text/css">
	.st0{fill:#666464;}
</style>
<g>
	<path class="st0" d="M90,100.5c-10.1,3.8-11.4,7.9-8.2,26c8.1,0,16.3,0,24.5,0c8.1,0,16.3,0,24.3,0c4.5-13.3,1.9-21.8-7.8-26.6
		c5.1-6.6,5.1-6.6,12.5-3.9c27,10,40.3,31,45.9,57.7c3.2,15.3-4.6,24.2-22.1,25.9c-5,0.5-9.5,2.2-14.2,3.5
		c-8.6,2.5-17.5,4.2-26.3,5.1c-16.5,1.6-33.1,1.3-49-3.6c-7.7-2.4-15.3-4.7-23.4-5.8c-7.5-1-13.6-5.2-18.3-11.2
		c-1-1.2-1.4-3.3-1.4-4.9c0.7-28.9,22.8-58.3,50.3-66.8C85.5,93.3,83.1,92.2,90,100.5z M148.9,171.6c6.9,1.6,15.5,0,21.5-3.8
		c3.2-2,4.5-4.4,4-8.2c-2.2-15.7-7.8-29.8-18.7-41.6c-2-2.1-4.3-3.8-6.5-5.8c-0.4,0.3-0.9,0.5-1.3,0.8c2.3,9.6,6.3,19.2,6.5,28.9
		C154.6,151.7,151,161.5,148.9,171.6z M61.3,172c-1.6-9.9-4.6-19.5-4.3-29c0.3-9.7,3.9-19.2,6.2-29.7c-1.7,0.7-2.2,0.8-2.5,1.1
		c-14.5,12.4-22.4,28.2-24.5,47c-0.2,1.5,0.7,3.7,1.9,4.7C44.8,171.8,52.7,173,61.3,172z M106.6,143c-0.7-0.4-1.1-0.6-1.5-0.9
		c-6.7-4.3-12.9-3.8-17.4,1.4c-4.7,5.4-4.3,12.3,1.1,18c4.1,4.3,8.4,8.6,12.7,12.8c3.8,3.6,6.7,3.7,10.5,0.1
		c4.6-4.4,9.1-8.8,13.4-13.5c3.1-3.3,4.7-7.2,3.4-11.9C126.1,139.3,116.4,136.5,106.6,143z"/>
	<path class="st0" d="M84.1,86.7c-10.5,1-10.7,1-13.5-8.8c-3.2-11.3-7.1-22.7-5.4-34.7c2.7-19.5,14.7-32,32.9-35.2
		c19.3-3.4,34.5,4.1,44.2,21.5c5,9,6.8,18.4,4.5,28.4c-2,8.9-4.4,17.7-7,26.5c-0.4,1.4-2.9,3.2-4.4,3.2c-8.3,0.1-16.4,0.2-24.5,3.3
		c-3.5,1.3-8.1,0.1-12.1-0.6C93.8,89.4,89,87.9,84.1,86.7z M135,47c-14,0-27.7,0-41.3,0c-0.8-4.9-1.5-8.9-2.2-13
		c-0.3,0-0.5,0.1-0.8,0.1c-0.7,4.2-1.3,8.4-2.1,13.1c-4,0-7.5,0-11,0C76.3,64.1,80,74.7,90.1,83.4c10,8.6,22.1,8.8,32.2,0.2
		C133.2,74.2,136.7,62.1,135,47z"/>
	<path class="st0" d="M106.9,169.9c-4.7-4.7-9.2-9.1-13.7-13.6c-2.6-2.6-2.8-5.7-0.4-8.5c2.6-2.9,5.7-2.6,8.3-0.1
		c3.7,3.6,7,4.5,10.8-0.1c2.4-2.8,5.7-2.7,8.4-0.1c2.7,2.6,2.6,5.8,0.1,8.5C116.1,160.8,111.5,165.3,106.9,169.9z"/>
</g>
</svg>
