<?xml version="1.0" encoding="utf-8"?>
<!-- Generator: Adobe Illustrator 22.0.1, SVG Export Plug-In . SVG Version: 6.00 Build 0)  -->
<svg version="1.1" id="圖層_1" xmlns="http://www.w3.org/2000/svg" xmlns:xlink="http://www.w3.org/1999/xlink" x="0px" y="0px"
	 viewBox="0 0 200 200" style="enable-background:new 0 0 200 200;" xml:space="preserve">
<style type="text/css">
	.st0{fill:#666464;}
</style>
<g>
	<path class="st0" d="M152.5,90.9c-3.9-0.3-7.7-0.6-11.7-0.8c0-8,0-16,0-24.1c-37.8,0-75.4,0-113.3,0c0,0.6,0,1.2,0,1.7
		c0,20.3,0,40.5,0,60.8c0,5.2,3.3,8.5,8.5,8.5c17.4,0,34.8,0,52.2,0c0.7,0,1.3,0,2,0c0.3,4.4,0.6,8.6,1,13.2c-0.4,0-1,0-1.6,0
		c-20.9,0-41.8,0-62.7,0c-6.8,0-11.2-4.4-11.2-11.2c0-33,0-66.1,0-99.1c0-6.2,4.6-10.8,10.8-10.8c2.7,0,5.4,0,8.3,0c0,0.7,0,1.3,0,2
		c0.1,3.7-0.1,7.4,0.3,11c0.6,4.9,4.1,8.5,9,9.1c2.7,0.4,5.6,0.3,8.3-0.1c5.1-0.9,8.6-5.5,8.7-11.1c0.1-3.6,0-7.1,0-10.8
		c15.4,0,30.6,0,46.1,0c0,3.5,0,7,0,10.5c0,3,0.8,5.8,2.9,8c1,1,2.2,2,3.5,2.6c5.5,2.8,13.9,1.2,17.5-3.2c1.7-2.1,2.4-4.6,2.4-7.3
		c0-3.5,0-7,0-10.4c3.6,0,7.1-0.4,10.4,0.1c5,0.6,8.6,4.9,8.6,9.9c0.1,17.1,0,34.2,0,51.4C152.6,90.6,152.6,90.7,152.5,90.9z"/>
	<path class="st0" d="M143.2,182.4c-22.5-0.1-40.8-18.6-40.6-41c0.1-22.5,18.5-40.9,40.8-40.6c23.7,0.3,41.2,18.4,41,41.1
		C184.1,164.7,166.5,182.2,143.2,182.4z M116.4,141.6c0.1,14.9,12.2,26.9,27.1,26.9c14.8,0,27-12.3,26.9-27.1
		c-0.1-14.9-12.2-27-27.1-26.9C128.5,114.6,116.4,126.8,116.4,141.6z"/>
	<path class="st0" d="M41.3,29.2c0-3.4,0-6.8,0-10.2c0-3.4,1.8-5.2,5.1-5.2c1.2,0,2.3,0,3.5,0c2.6,0.1,4.5,1.9,4.6,4.4
		c0.1,7.3,0.1,14.7,0,22c0,2.5-2,4.4-4.5,4.5c-1.3,0-2.6,0-3.9,0c-2.7-0.1-4.6-2-4.7-4.7C41.3,36.5,41.3,32.8,41.3,29.2z"/>
	<path class="st0" d="M113.8,29.1c0-3.5,0-6.9,0-10.4c0-3,1.9-4.9,4.9-5c1.2,0,2.4,0,3.6,0c2.6,0.1,4.6,1.9,4.6,4.6
		c0.1,7.3,0,14.6,0,21.9c0,2.5-2,4.4-4.5,4.5c-1.3,0-2.6,0-3.9,0c-2.8-0.1-4.7-2-4.7-4.8C113.8,36.4,113.8,32.7,113.8,29.1z"/>
	<path class="st0" d="M94.6,85.6c0,5.7-5,10.5-10.6,10.4c-5.8-0.1-10.5-5-10.4-10.6c0.1-5.7,4.9-10.4,10.5-10.3
		C89.8,75.2,94.7,80,94.6,85.6z"/>
	<path class="st0" d="M94.6,117.3c-0.1,5.7-5,10.5-10.6,10.4c-5.8-0.1-10.5-5-10.4-10.6c0.2-5.7,4.9-10.4,10.5-10.3
		C89.9,106.8,94.7,111.6,94.6,117.3z"/>
	<path class="st0" d="M63.2,85.6c0,5.8-4.7,10.5-10.4,10.5c-5.6,0-10.4-4.8-10.4-10.4c0-5.8,4.8-10.6,10.6-10.6
		C58.6,75.2,63.2,79.9,63.2,85.6z"/>
	<path class="st0" d="M105.1,85.6c0-5.7,4.6-10.4,10.4-10.5c5.6-0.1,10.4,4.7,10.5,10.4c0.1,5.6-4.8,10.5-10.4,10.5
		C109.8,96.1,105.1,91.4,105.1,85.6z"/>
	<path class="st0" d="M63.2,117.2c0,5.8-4.7,10.5-10.5,10.5c-5.6,0-10.4-4.8-10.4-10.4c0-5.7,4.7-10.5,10.4-10.6
		C58.5,106.7,63.2,111.5,63.2,117.2z"/>
	<path class="st0" d="M123.9,145.8c2-2,4.1-4.1,6.3-6.2c2.8,2.9,5.7,5.9,8.6,8.8c6.9-6.9,13.5-13.6,20.1-20.2
		c2.3,2.3,4.3,4.5,6.3,6.5c-8.6,8.6-17.4,17.4-26.2,26.2C134.1,156.1,129.1,151,123.9,145.8z"/>
</g>
</svg>
