<?xml version="1.0" encoding="utf-8"?>
<!-- Generator: Adobe Illustrator 22.0.1, SVG Export Plug-In . SVG Version: 6.00 Build 0)  -->
<svg version="1.1" id="圖層_1" xmlns="http://www.w3.org/2000/svg" xmlns:xlink="http://www.w3.org/1999/xlink" x="0px" y="0px"
	 viewBox="0 0 200 200" style="enable-background:new 0 0 200 200;" xml:space="preserve">
<style type="text/css">
	.st0{fill:#666464;}
</style>
<g>
	<path class="st0" d="M33.2,98.1c0-18.9,0-37.9,0-56.8c0-5.7,1.8-10.7,5.2-15.2c3.6-4.6,8.3-7.7,14-9.1c1.9-0.5,3.8-0.7,5.7-0.7
		c16.7,0,33.4,0,50.1,0c2.5,0,4.7,0.7,6.8,1.9c2.8,1.6,5.3,3.7,7.7,5.9c3,2.9,6,5.9,9,8.9c5.1,5,10.3,10.1,15.4,15.1
		c2.8,2.8,5.6,5.7,7.9,8.9c1.6,2.2,3,4.4,3.5,7.1c0.2,0.9,0.3,1.8,0.3,2.7c0,18.4,0,36.8,0,55.2c0,11,0,22,0,32.9
		c0,5.8-2,10.9-5.6,15.4c-3.4,4.3-7.8,7.1-13.1,8.5c-2,0.6-4.1,0.8-6.2,0.8c-25.3,0-50.6,0-75.9,0c-5.7,0-10.9-1.9-15.4-5.5
		c-4.6-3.7-7.6-8.4-8.9-14.2c-0.4-1.6-0.6-3.2-0.6-4.9C33.1,136.2,33.2,117.2,33.2,98.1z M45.7,98.1c0,18.5,0,37.1,0,55.6
		c0,0.7,0,1.4,0.1,2.2c0.2,2.9,1.4,5.5,3.5,7.6c2.5,2.6,5.6,3.8,9.3,3.8c25,0,50,0,74.9,0c0.7,0,1.3,0,2-0.1
		c2.4-0.3,4.6-1.3,6.4-2.9c3-2.6,4.4-5.9,4.4-9.9c0-26.9,0-53.8,0-80.7c0-0.5,0-1,0-1.4c-0.2-2.2-1.3-3.7-3.3-4.5
		c-2.1-0.9-4.4-1-6.6-1c-7.1,0-14.2,0-21.4,0c-3.7,0-6.4-2.8-6.4-6.5c0-5.8,0-11.6,0-17.5c0-2.4-0.1-4.9-0.2-7.3
		c-0.1-1.4-0.4-2.8-1.1-4c-0.9-1.6-2.2-2.5-4.1-2.5c-14.8,0-29.6,0-44.3,0c-0.9,0-1.8,0-2.7,0.2c-6,1.1-10.3,6.3-10.3,12.4
		C45.7,60.4,45.7,79.2,45.7,98.1z"/>
	<path class="st0" d="M95.6,79.2c10.6,0,21.2,0,31.8,0c3.1,0,5.6,2,6.2,5.1c0.7,3.3-1.5,6.7-4.8,7.4c-0.6,0.1-1.3,0.2-1.9,0.2
		c-20.6,0-41.2,0-61.9,0c-1.1,0-2.2,0-3.3-0.4c-2.6-1-4.3-3.5-4.1-6.3c0.2-2.8,2.3-5.2,5-5.8c0.4-0.1,0.8-0.1,1.1-0.1
		C74.4,79.2,85,79.2,95.6,79.2z"/>
	<path class="st0" d="M95.6,129.5c10.6,0,21.3,0,31.9,0c2.9,0,5.8,2.2,6.2,5.5c0.5,3.7-2.1,6.5-5.1,7c-0.4,0.1-0.8,0.1-1.2,0.1
		c-20.8,0-41.6,0-62.4,0c-1.1,0-2.2,0.1-3.2-0.3c-2.9-1.1-4.4-3.7-4.2-6.4c0.3-3,2.5-5.4,5.3-5.8c0.2,0,0.5,0,0.7,0
		C74.3,129.5,85,129.5,95.6,129.5z"/>
	<path class="st0" d="M89.3,117c-8.4,0-16.9,0-25.3,0c-3.5,0-6.4-2.9-6.4-6.4c0.1-3.5,3-6.2,6.3-6.2c16.9,0,33.8,0,50.7,0
		c2.7,0,4.8,1.1,6.1,3.6c1.8,3.8-0.6,8.3-4.8,8.9c-0.4,0.1-0.9,0.1-1.3,0.1C106.1,117,97.7,117,89.3,117C89.3,117,89.3,117,89.3,117
		z"/>
</g>
</svg>
