<svg id="圖層_1" data-name="圖層 1" xmlns="http://www.w3.org/2000/svg" viewBox="0 0 73 12.19"><defs><style>.cls-1{fill:#fff;}</style></defs><title>logo</title><path class="cls-1" d="M7.25,4.58A1.8,1.8,0,0,0,5.35,3C3.89,3,3,4.1,3,6.08s.89,3.14,2.37,3.14A1.9,1.9,0,0,0,7,8.47a2.18,2.18,0,0,0,.36-1l2.49.38a4.51,4.51,0,0,1-1,2.19,4.28,4.28,0,0,1-3.35,1.31A4.86,4.86,0,0,1,1.94,10,5.52,5.52,0,0,1,.54,6.08,5.43,5.43,0,0,1,2,2.13,4.84,4.84,0,0,1,5.44.89,4.16,4.16,0,0,1,9,2.46,3.75,3.75,0,0,1,9.72,4.1Z"/><path class="cls-1" d="M20.36,6c0,3.17-1.93,5.27-4.84,5.27s-4.84-2.05-4.84-5.23S12.58.89,15.53.89,20.36,2.9,20.36,6Zm-2.49,0C17.87,4.12,17,3,15.53,3s-2.36,1.19-2.36,3.12.9,3.16,2.36,3.16S17.87,8,17.87,6.07Z"/><path class="cls-1" d="M25.93,11.08a9.45,9.45,0,0,0-.51-1.77L24.31,6.12c0-.06-.37-1.18-.4-1.28-.14-.43-.14-.43-.19-.6.07.76.11,1.74.11,2.38v2.6a13,13,0,0,0,.1,1.86H21.57a13.7,13.7,0,0,0,.09-1.86V3a16.71,16.71,0,0,0-.09-1.87h3.16a9,9,0,0,0,.46,1.69L27,8l1.79-5.17a8.29,8.29,0,0,0,.44-1.69H32.4A14.23,14.23,0,0,0,32.3,3V9.22a12.09,12.09,0,0,0,.1,1.86H30a13.51,13.51,0,0,0,.09-1.86V6.61c0-.29,0-1.19.06-1.56,0-.64,0-.64,0-.82C30,5.17,29.86,5.6,29.7,6L28.54,9.32A11.07,11.07,0,0,0,28,11.08Z"/><path class="cls-1" d="M33.9,11.08A11.67,11.67,0,0,0,34,9.31V2.82a12,12,0,0,0-.1-1.75c.57,0,1,0,1.77,0h2.62C40.67,1.1,42,2.24,42,4.33s-1.37,3.4-3.7,3.4H36.39V9.27a15.7,15.7,0,0,0,.09,1.81ZM38.17,5.7a1.21,1.21,0,0,0,1.34-1.3c0-.83-.47-1.26-1.34-1.26H36.39V5.7Z"/><path class="cls-1" d="M49.14,11.08a9.8,9.8,0,0,0-.29-1.29l-.32-1H45.11l-.32,1a6.46,6.46,0,0,0-.3,1.29H41.68a12.27,12.27,0,0,0,.58-1.46L44.85,2.4a7.81,7.81,0,0,0,.38-1.3h3.13a9.19,9.19,0,0,0,.41,1.3l2.6,7.22c.23.63.42,1.12.58,1.46ZM46.8,3.15l-1.11,3.6h2.25Z"/><path class="cls-1" d="M58.51,6a16.4,16.4,0,0,1,.87,1.42c-.05-.55-.08-1.1-.08-1.77V2.93a13.49,13.49,0,0,0-.09-1.83h2.55a13.58,13.58,0,0,0-.09,1.83V9.29a14.74,14.74,0,0,0,.09,1.79H59.14a12.58,12.58,0,0,0-.9-1.52L56,6.21a14.37,14.37,0,0,1-.86-1.47c.05.54.08,1.2.08,1.78V9.21a13.58,13.58,0,0,0,.09,1.87H52.78a12.48,12.48,0,0,0,.1-1.88V2.89a13.65,13.65,0,0,0-.1-1.79h2.6a8,8,0,0,0,.85,1.5Z"/><path class="cls-1" d="M68.75,9.31a15,15,0,0,0,.09,1.77H66.23a15.69,15.69,0,0,0,.1-1.77V7.09L63.57,2.55c-.22-.37-.48-.76-1-1.45h3a5.79,5.79,0,0,0,.57,1.26L67.54,4.8l1.33-2.43a5.13,5.13,0,0,0,.55-1.27h3c-.35.51-.81,1.19-1,1.45L68.75,7.09Z"/></svg>