<?xml version="1.0" encoding="utf-8"?>
<!-- Generator: Adobe Illustrator 16.0.0, SVG Export Plug-In . SVG Version: 6.00 Build 0)  -->
<!DOCTYPE svg PUBLIC "-//W3C//DTD SVG 1.1//EN" "http://www.w3.org/Graphics/SVG/1.1/DTD/svg11.dtd">
<svg version="1.1" id="Layer_1" xmlns="http://www.w3.org/2000/svg" xmlns:xlink="http://www.w3.org/1999/xlink" x="0px" y="0px"
	 width="10px" height="9.875px" viewBox="21.624 0 10 9.875" enable-background="new 21.624 0 10 9.875" xml:space="preserve">
<path fill="#FF5B57" d="M26.624,1.458c-0.643,0-1.235,0.158-1.777,0.475s-0.972,0.747-1.289,1.289S23.083,4.357,23.083,5
	s0.158,1.234,0.475,1.777s0.747,0.973,1.289,1.289s1.135,0.476,1.777,0.476s1.234-0.159,1.777-0.476s0.973-0.746,1.289-1.289
	S30.166,5.643,30.166,5s-0.159-1.235-0.476-1.777s-0.746-0.972-1.289-1.289S27.267,1.458,26.624,1.458z M31.624,5
	c0,0.907-0.224,1.744-0.671,2.51c-0.446,0.766-1.054,1.373-1.819,1.819C28.368,9.776,27.531,10,26.624,10s-1.744-0.224-2.51-0.671
	c-0.766-0.446-1.373-1.054-1.82-1.819c-0.447-0.766-0.67-1.603-0.67-2.51s0.224-1.744,0.67-2.51c0.447-0.766,1.054-1.373,1.82-1.82
	C24.88,0.224,25.717,0,26.624,0s1.744,0.224,2.51,0.67c0.766,0.447,1.373,1.054,1.819,1.82C31.4,3.256,31.624,4.093,31.624,5z"/>
</svg>
